<svg xmlns="http://www.w3.org/2000/svg" viewBox="0 0 511.87 511.87"><defs><style>.cls-1{fill:#1976d1;}.cls-2{fill:#2195f2;}</style></defs><g id="Layer_2" data-name="Layer 2"><g id="Layer_1-2" data-name="Layer 1"><path class="cls-1" d="M0,481.87V243.94c4.11-22.09,17.59-33.34,40.55-33.39q77-.18,154,0c25.4.07,42.78,17.42,42.83,42.83q.19,109.22,0,218.43c0,12.71-4.14,23.61-13.79,32.53-6,5.59-13.23,6.43-20.59,7.53H30c-6.15-1.56-12.56-1.91-17.78-6.61C6.07,499.72,1.4,493.72.73,485.19.64,484.11.86,482.84,0,481.87Z"/><path class="cls-1" d="M307.92,0h173c6.73,1.35,13.54,1.86,19.19,6.91,6.67,5.95,10.82,12.78,11.31,21.74.06,1.12-.36,2.33.5,3.34V267.93c-4.12,22.08-17.6,33.34-40.56,33.39q-77,.18-153.95,0c-25.41-.07-42.78-17.41-42.82-42.83q-.19-109.22,0-218.43c0-12.71,4.14-23.62,13.8-32.53C294.09,2.21,300.91,1.23,307.92,0Z"/><path class="cls-2" d="M204,0c.26.73.89.81,1.54,1,18.22,4.94,29,18.58,29.15,37.47q.26,46.73,0,93.45c-.13,22.75-16,38.69-38.81,38.75q-78.45.21-156.91,0c-18.42,0-31.44-9.67-37.53-27.25-.31-.89-.19-2.06-1.39-2.46V30c1.52-6.17,2-12.52,6.59-17.8,5.86-6.73,12.6-11,21.56-11.68,1-.07,2,.25,2.84-.51Z"/><path class="cls-2" d="M306.92,511.87c-.5-1.39-1.9-1.21-2.92-1.56-16.58-5.71-26.57-18.57-26.72-35.87-.28-32-.37-64,0-95.95.26-21.2,16-37.05,37.19-37.19,53.3-.35,106.61-.27,159.91,0,18.09.08,31.66,11.22,36.4,28.59.21.77.07,1.7,1.07,2v110c-1.52,6.18-2,12.52-6.6,17.81-5.85,6.73-12.6,11-21.56,11.68-1,.07-2-.26-2.84.51Z"/></g></g></svg>