<svg width="1363" height="297" viewBox="0 0 1363 297" fill="none" xmlns="http://www.w3.org/2000/svg">
<path d="M0 15C0 6.71573 6.71573 0 15 0H37V297H15C6.71573 297 0 290.284 0 282V15Z" fill="#1976D2"/>
<path d="M37 0H1066V297H37V0Z" fill="#F0F0F0"/>
<path d="M105.691 53.7832L98.7305 75H93.123L102.633 49.4062H106.201L105.691 53.7832ZM111.475 75L104.496 53.7832L103.934 49.4062H107.537L117.1 75H111.475ZM111.158 65.4727V69.6035H97.6406V65.4727H111.158ZM123.656 59.918V75H118.576V55.9805H123.34L123.656 59.918ZM122.953 64.8223H121.547C121.547 63.498 121.705 62.2793 122.021 61.166C122.35 60.041 122.824 59.0684 123.445 58.248C124.078 57.416 124.857 56.7715 125.783 56.3145C126.709 55.8574 127.781 55.6289 129 55.6289C129.844 55.6289 130.617 55.7578 131.32 56.0156C132.023 56.2617 132.627 56.6543 133.131 57.1934C133.646 57.7207 134.045 58.4121 134.326 59.2676C134.607 60.1113 134.748 61.125 134.748 62.3086V75H129.686V62.8711C129.686 62.0039 129.568 61.3359 129.334 60.8672C129.1 60.3984 128.766 60.0703 128.332 59.8828C127.91 59.6953 127.4 59.6016 126.803 59.6016C126.146 59.6016 125.572 59.7363 125.08 60.0059C124.6 60.2754 124.201 60.6504 123.885 61.1309C123.568 61.5996 123.334 62.1504 123.182 62.7832C123.029 63.416 122.953 64.0957 122.953 64.8223ZM134.273 64.2422L132.463 64.4707C132.463 63.2285 132.615 62.0742 132.92 61.0078C133.236 59.9414 133.699 59.0039 134.309 58.1953C134.93 57.3867 135.697 56.7598 136.611 56.3145C137.525 55.8574 138.58 55.6289 139.775 55.6289C140.689 55.6289 141.521 55.7637 142.271 56.0332C143.021 56.291 143.66 56.707 144.188 57.2812C144.727 57.8438 145.137 58.582 145.418 59.4961C145.711 60.4102 145.857 61.5293 145.857 62.8535V75H140.777V62.8535C140.777 61.9746 140.66 61.3066 140.426 60.8496C140.203 60.3809 139.875 60.0586 139.441 59.8828C139.02 59.6953 138.516 59.6016 137.93 59.6016C137.32 59.6016 136.787 59.7246 136.33 59.9707C135.873 60.2051 135.492 60.5332 135.188 60.9551C134.883 61.377 134.654 61.8691 134.502 62.4316C134.35 62.9824 134.273 63.5859 134.273 64.2422ZM154.84 60.1289V75H149.777V55.9805H154.541L154.84 60.1289ZM160.57 55.8574L160.482 60.5508C160.236 60.5156 159.938 60.4863 159.586 60.4629C159.246 60.4277 158.936 60.4102 158.654 60.4102C157.939 60.4102 157.318 60.5039 156.791 60.6914C156.275 60.8672 155.842 61.1309 155.49 61.4824C155.15 61.834 154.893 62.2617 154.717 62.7656C154.553 63.2695 154.459 63.8438 154.436 64.4883L153.416 64.1719C153.416 62.9414 153.539 61.8105 153.785 60.7793C154.031 59.7363 154.389 58.8281 154.857 58.0547C155.338 57.2812 155.924 56.6836 156.615 56.2617C157.307 55.8398 158.098 55.6289 158.988 55.6289C159.27 55.6289 159.557 55.6523 159.85 55.6992C160.143 55.7344 160.383 55.7871 160.57 55.8574ZM189.311 59.8301V63.9434H175.951V59.8301H189.311ZM177.516 49.4062V75H172.242V49.4062H177.516ZM193.072 49.4062V75H187.816V49.4062H193.072ZM207.609 70.7109V62.2383C207.609 61.6289 207.51 61.1074 207.311 60.6738C207.111 60.2285 206.801 59.8828 206.379 59.6367C205.969 59.3906 205.436 59.2676 204.779 59.2676C204.217 59.2676 203.73 59.3672 203.32 59.5664C202.91 59.7539 202.594 60.0293 202.371 60.3926C202.148 60.7441 202.037 61.1602 202.037 61.6406H196.975C196.975 60.832 197.162 60.0645 197.537 59.3379C197.912 58.6113 198.457 57.9727 199.172 57.4219C199.887 56.8594 200.736 56.4199 201.721 56.1035C202.717 55.7871 203.83 55.6289 205.061 55.6289C206.537 55.6289 207.85 55.875 208.998 56.3672C210.146 56.8594 211.049 57.5977 211.705 58.582C212.373 59.5664 212.707 60.7969 212.707 62.2734V70.4121C212.707 71.4551 212.771 72.3105 212.9 72.9785C213.029 73.6348 213.217 74.209 213.463 74.7012V75H208.348C208.102 74.4844 207.914 73.8398 207.785 73.0664C207.668 72.2812 207.609 71.4961 207.609 70.7109ZM208.277 63.416L208.312 66.2812H205.482C204.814 66.2812 204.234 66.3574 203.742 66.5098C203.25 66.6621 202.846 66.8789 202.529 67.1602C202.213 67.4297 201.979 67.7461 201.826 68.1094C201.686 68.4727 201.615 68.8711 201.615 69.3047C201.615 69.7383 201.715 70.1309 201.914 70.4824C202.113 70.8223 202.4 71.0918 202.775 71.291C203.15 71.4785 203.59 71.5723 204.094 71.5723C204.855 71.5723 205.518 71.4199 206.08 71.1152C206.643 70.8105 207.076 70.4355 207.381 69.9902C207.697 69.5449 207.861 69.123 207.873 68.7246L209.209 70.8691C209.021 71.3496 208.764 71.8477 208.436 72.3633C208.119 72.8789 207.715 73.3652 207.223 73.8223C206.73 74.2676 206.139 74.6367 205.447 74.9297C204.756 75.2109 203.936 75.3516 202.986 75.3516C201.779 75.3516 200.684 75.1113 199.699 74.6309C198.727 74.1387 197.953 73.4648 197.379 72.6094C196.816 71.7422 196.535 70.7578 196.535 69.6562C196.535 68.6602 196.723 67.7754 197.098 67.002C197.473 66.2285 198.023 65.5781 198.75 65.0508C199.488 64.5117 200.408 64.1074 201.51 63.8379C202.611 63.5566 203.889 63.416 205.342 63.416H208.277ZM221.672 59.918V75H216.592V55.9805H221.355L221.672 59.918ZM220.969 64.8223H219.562C219.562 63.498 219.721 62.2793 220.037 61.166C220.365 60.041 220.84 59.0684 221.461 58.248C222.094 57.416 222.873 56.7715 223.799 56.3145C224.725 55.8574 225.797 55.6289 227.016 55.6289C227.859 55.6289 228.633 55.7578 229.336 56.0156C230.039 56.2617 230.643 56.6543 231.146 57.1934C231.662 57.7207 232.061 58.4121 232.342 59.2676C232.623 60.1113 232.764 61.125 232.764 62.3086V75H227.701V62.8711C227.701 62.0039 227.584 61.3359 227.35 60.8672C227.115 60.3984 226.781 60.0703 226.348 59.8828C225.926 59.6953 225.416 59.6016 224.818 59.6016C224.162 59.6016 223.588 59.7363 223.096 60.0059C222.615 60.2754 222.217 60.6504 221.9 61.1309C221.584 61.5996 221.35 62.1504 221.197 62.7832C221.045 63.416 220.969 64.0957 220.969 64.8223ZM232.289 64.2422L230.479 64.4707C230.479 63.2285 230.631 62.0742 230.936 61.0078C231.252 59.9414 231.715 59.0039 232.324 58.1953C232.945 57.3867 233.713 56.7598 234.627 56.3145C235.541 55.8574 236.596 55.6289 237.791 55.6289C238.705 55.6289 239.537 55.7637 240.287 56.0332C241.037 56.291 241.676 56.707 242.203 57.2812C242.742 57.8438 243.152 58.582 243.434 59.4961C243.727 60.4102 243.873 61.5293 243.873 62.8535V75H238.793V62.8535C238.793 61.9746 238.676 61.3066 238.441 60.8496C238.219 60.3809 237.891 60.0586 237.457 59.8828C237.035 59.6953 236.531 59.6016 235.945 59.6016C235.336 59.6016 234.803 59.7246 234.346 59.9707C233.889 60.2051 233.508 60.5332 233.203 60.9551C232.898 61.377 232.67 61.8691 232.518 62.4316C232.365 62.9824 232.289 63.5859 232.289 64.2422ZM252.855 59.918V75H247.775V55.9805H252.539L252.855 59.918ZM252.152 64.8223H250.746C250.746 63.498 250.904 62.2793 251.221 61.166C251.549 60.041 252.023 59.0684 252.645 58.248C253.277 57.416 254.057 56.7715 254.982 56.3145C255.908 55.8574 256.98 55.6289 258.199 55.6289C259.043 55.6289 259.816 55.7578 260.52 56.0156C261.223 56.2617 261.826 56.6543 262.33 57.1934C262.846 57.7207 263.244 58.4121 263.525 59.2676C263.807 60.1113 263.947 61.125 263.947 62.3086V75H258.885V62.8711C258.885 62.0039 258.768 61.3359 258.533 60.8672C258.299 60.3984 257.965 60.0703 257.531 59.8828C257.109 59.6953 256.6 59.6016 256.002 59.6016C255.346 59.6016 254.771 59.7363 254.279 60.0059C253.799 60.2754 253.4 60.6504 253.084 61.1309C252.768 61.5996 252.533 62.1504 252.381 62.7832C252.229 63.416 252.152 64.0957 252.152 64.8223ZM263.473 64.2422L261.662 64.4707C261.662 63.2285 261.814 62.0742 262.119 61.0078C262.436 59.9414 262.898 59.0039 263.508 58.1953C264.129 57.3867 264.896 56.7598 265.811 56.3145C266.725 55.8574 267.779 55.6289 268.975 55.6289C269.889 55.6289 270.721 55.7637 271.471 56.0332C272.221 56.291 272.859 56.707 273.387 57.2812C273.926 57.8438 274.336 58.582 274.617 59.4961C274.91 60.4102 275.057 61.5293 275.057 62.8535V75H269.977V62.8535C269.977 61.9746 269.859 61.3066 269.625 60.8496C269.402 60.3809 269.074 60.0586 268.641 59.8828C268.219 59.6953 267.715 59.6016 267.129 59.6016C266.52 59.6016 265.986 59.7246 265.529 59.9707C265.072 60.2051 264.691 60.5332 264.387 60.9551C264.082 61.377 263.854 61.8691 263.701 62.4316C263.549 62.9824 263.473 63.5859 263.473 64.2422ZM278.168 65.6836V65.3145C278.168 63.9199 278.367 62.6367 278.766 61.4648C279.164 60.2812 279.744 59.2559 280.506 58.3887C281.268 57.5215 282.205 56.8477 283.318 56.3672C284.432 55.875 285.709 55.6289 287.15 55.6289C288.592 55.6289 289.875 55.875 291 56.3672C292.125 56.8477 293.068 57.5215 293.83 58.3887C294.604 59.2559 295.189 60.2812 295.588 61.4648C295.986 62.6367 296.186 63.9199 296.186 65.3145V65.6836C296.186 67.0664 295.986 68.3496 295.588 69.5332C295.189 70.7051 294.604 71.7305 293.83 72.6094C293.068 73.4766 292.131 74.1504 291.018 74.6309C289.904 75.1113 288.627 75.3516 287.186 75.3516C285.744 75.3516 284.461 75.1113 283.336 74.6309C282.223 74.1504 281.279 73.4766 280.506 72.6094C279.744 71.7305 279.164 70.7051 278.766 69.5332C278.367 68.3496 278.168 67.0664 278.168 65.6836ZM283.23 65.3145V65.6836C283.23 66.4805 283.301 67.2246 283.441 67.916C283.582 68.6074 283.805 69.2168 284.109 69.7441C284.426 70.2598 284.836 70.6641 285.34 70.957C285.844 71.25 286.459 71.3965 287.186 71.3965C287.889 71.3965 288.492 71.25 288.996 70.957C289.5 70.6641 289.904 70.2598 290.209 69.7441C290.514 69.2168 290.736 68.6074 290.877 67.916C291.029 67.2246 291.105 66.4805 291.105 65.6836V65.3145C291.105 64.541 291.029 63.8145 290.877 63.1348C290.736 62.4434 290.508 61.834 290.191 61.3066C289.887 60.7676 289.482 60.3457 288.979 60.041C288.475 59.7363 287.865 59.584 287.15 59.584C286.436 59.584 285.826 59.7363 285.322 60.041C284.83 60.3457 284.426 60.7676 284.109 61.3066C283.805 61.834 283.582 62.4434 283.441 63.1348C283.301 63.8145 283.23 64.541 283.23 65.3145ZM310.547 70.4473V55.9805H315.609V75H310.846L310.547 70.4473ZM311.109 66.5449L312.604 66.5098C312.604 67.7754 312.457 68.9531 312.164 70.043C311.871 71.1211 311.432 72.0586 310.846 72.8555C310.26 73.6406 309.521 74.2559 308.631 74.7012C307.74 75.1348 306.691 75.3516 305.484 75.3516C304.559 75.3516 303.703 75.2227 302.918 74.9648C302.145 74.6953 301.477 74.2793 300.914 73.7168C300.363 73.1426 299.93 72.4102 299.613 71.5195C299.309 70.6172 299.156 69.5332 299.156 68.2676V55.9805H304.219V68.3027C304.219 68.8652 304.283 69.3398 304.412 69.7266C304.553 70.1133 304.746 70.4297 304.992 70.6758C305.238 70.9219 305.525 71.0977 305.854 71.2031C306.193 71.3086 306.568 71.3613 306.979 71.3613C308.021 71.3613 308.842 71.1504 309.439 70.7285C310.049 70.3066 310.477 69.7324 310.723 69.0059C310.98 68.2676 311.109 67.4473 311.109 66.5449ZM330.709 70.8516V48H335.807V75H331.219L330.709 70.8516ZM318.686 65.7188V65.3496C318.686 63.8965 318.85 62.5781 319.178 61.3945C319.506 60.1992 319.986 59.1738 320.619 58.3184C321.252 57.4629 322.031 56.8008 322.957 56.332C323.883 55.8633 324.938 55.6289 326.121 55.6289C327.234 55.6289 328.207 55.8633 329.039 56.332C329.883 56.8008 330.598 57.4688 331.184 58.3359C331.781 59.1914 332.262 60.2051 332.625 61.377C332.988 62.5371 333.252 63.8086 333.416 65.1914V66C333.252 67.3242 332.988 68.5547 332.625 69.6914C332.262 70.8281 331.781 71.8242 331.184 72.6797C330.598 73.5234 329.883 74.1797 329.039 74.6484C328.195 75.1172 327.211 75.3516 326.086 75.3516C324.902 75.3516 323.848 75.1113 322.922 74.6309C322.008 74.1504 321.234 73.4766 320.602 72.6094C319.98 71.7422 319.506 70.7227 319.178 69.5508C318.85 68.3789 318.686 67.1016 318.686 65.7188ZM323.748 65.3496V65.7188C323.748 66.5039 323.807 67.2363 323.924 67.916C324.053 68.5957 324.258 69.1992 324.539 69.7266C324.832 70.2422 325.207 70.6465 325.664 70.9395C326.133 71.2207 326.701 71.3613 327.369 71.3613C328.236 71.3613 328.951 71.168 329.514 70.7812C330.076 70.3828 330.504 69.8379 330.797 69.1465C331.102 68.4551 331.277 67.6582 331.324 66.7559V64.4531C331.289 63.7148 331.184 63.0527 331.008 62.4668C330.844 61.8691 330.598 61.3594 330.27 60.9375C329.953 60.5156 329.555 60.1875 329.074 59.9531C328.605 59.7188 328.049 59.6016 327.404 59.6016C326.748 59.6016 326.186 59.7539 325.717 60.0586C325.248 60.3516 324.867 60.7559 324.574 61.2715C324.293 61.7871 324.082 62.3965 323.941 63.0996C323.812 63.791 323.748 64.541 323.748 65.3496Z" fill="#888888"/>
<path d="M108.969 140H100.137L100.191 132.617H108.969C110.792 132.617 112.332 132.18 113.59 131.305C114.866 130.43 115.832 129.126 116.488 127.395C117.163 125.645 117.5 123.493 117.5 120.941V119.219C117.5 117.305 117.309 115.628 116.926 114.188C116.561 112.729 116.014 111.517 115.285 110.551C114.556 109.566 113.645 108.828 112.551 108.336C111.475 107.844 110.236 107.598 108.832 107.598H99.9727V100.188H108.832C111.53 100.188 114 100.652 116.242 101.582C118.503 102.493 120.453 103.806 122.094 105.52C123.753 107.215 125.029 109.229 125.922 111.562C126.833 113.878 127.289 116.448 127.289 119.273V120.941C127.289 123.749 126.833 126.319 125.922 128.652C125.029 130.986 123.762 133 122.121 134.695C120.48 136.391 118.539 137.703 116.297 138.633C114.073 139.544 111.63 140 108.969 140ZM105.633 100.188V140H96.0352V100.188H105.633ZM147.223 132.562V120.367C147.223 119.529 147.104 118.809 146.867 118.207C146.63 117.605 146.257 117.141 145.746 116.812C145.236 116.466 144.552 116.293 143.695 116.293C143.003 116.293 142.41 116.411 141.918 116.648C141.426 116.885 141.052 117.241 140.797 117.715C140.542 118.189 140.414 118.79 140.414 119.52H131.199C131.199 118.152 131.5 116.885 132.102 115.719C132.721 114.534 133.596 113.504 134.727 112.629C135.875 111.754 137.242 111.079 138.828 110.605C140.432 110.113 142.219 109.867 144.188 109.867C146.539 109.867 148.635 110.259 150.477 111.043C152.336 111.827 153.803 113.003 154.879 114.57C155.954 116.12 156.492 118.07 156.492 120.422V132.535C156.492 134.467 156.602 135.935 156.82 136.938C157.039 137.922 157.349 138.788 157.75 139.535V140H148.508C148.07 139.089 147.742 137.977 147.523 136.664C147.323 135.333 147.223 133.966 147.223 132.562ZM148.344 121.926L148.398 126.848H144.324C143.467 126.848 142.738 126.966 142.137 127.203C141.553 127.44 141.079 127.768 140.715 128.188C140.368 128.589 140.113 129.044 139.949 129.555C139.803 130.065 139.73 130.603 139.73 131.168C139.73 131.715 139.858 132.207 140.113 132.645C140.387 133.064 140.751 133.392 141.207 133.629C141.663 133.866 142.173 133.984 142.738 133.984C143.759 133.984 144.625 133.793 145.336 133.41C146.065 133.009 146.621 132.526 147.004 131.961C147.387 131.396 147.578 130.867 147.578 130.375L149.602 134.148C149.237 134.878 148.818 135.616 148.344 136.363C147.888 137.111 147.314 137.803 146.621 138.441C145.947 139.061 145.117 139.572 144.133 139.973C143.148 140.355 141.954 140.547 140.551 140.547C138.728 140.547 137.051 140.173 135.52 139.426C134.007 138.678 132.794 137.639 131.883 136.309C130.971 134.96 130.516 133.41 130.516 131.66C130.516 130.129 130.789 128.762 131.336 127.559C131.901 126.355 132.749 125.335 133.879 124.496C135.009 123.658 136.449 123.02 138.199 122.582C139.949 122.145 142.009 121.926 144.379 121.926H148.344ZM177.109 131.688C177.109 131.177 176.936 130.74 176.59 130.375C176.262 129.992 175.678 129.646 174.84 129.336C174.001 129.008 172.826 128.68 171.312 128.352C169.872 128.042 168.514 127.632 167.238 127.121C165.98 126.611 164.878 125.991 163.93 125.262C162.982 124.533 162.234 123.667 161.688 122.664C161.159 121.661 160.895 120.513 160.895 119.219C160.895 117.961 161.159 116.776 161.688 115.664C162.234 114.534 163.027 113.54 164.066 112.684C165.124 111.809 166.409 111.125 167.922 110.633C169.435 110.122 171.158 109.867 173.09 109.867C175.751 109.867 178.048 110.277 179.98 111.098C181.913 111.9 183.398 113.03 184.438 114.488C185.495 115.928 186.023 117.596 186.023 119.492H176.809C176.809 118.745 176.681 118.107 176.426 117.578C176.189 117.049 175.797 116.648 175.25 116.375C174.703 116.083 173.974 115.938 173.062 115.938C172.424 115.938 171.841 116.056 171.312 116.293C170.802 116.53 170.392 116.858 170.082 117.277C169.772 117.697 169.617 118.189 169.617 118.754C169.617 119.155 169.708 119.52 169.891 119.848C170.091 120.158 170.392 120.449 170.793 120.723C171.194 120.978 171.704 121.215 172.324 121.434C172.944 121.634 173.691 121.816 174.566 121.98C176.553 122.345 178.413 122.865 180.145 123.539C181.876 124.214 183.28 125.171 184.355 126.41C185.449 127.65 185.996 129.318 185.996 131.414C185.996 132.727 185.695 133.939 185.094 135.051C184.492 136.145 183.626 137.111 182.496 137.949C181.366 138.77 180.008 139.408 178.422 139.863C176.836 140.319 175.049 140.547 173.062 140.547C170.237 140.547 167.849 140.046 165.898 139.043C163.948 138.022 162.471 136.746 161.469 135.215C160.484 133.665 159.992 132.098 159.992 130.512H168.578C168.615 131.423 168.833 132.171 169.234 132.754C169.654 133.337 170.21 133.766 170.902 134.039C171.595 134.312 172.397 134.449 173.309 134.449C174.147 134.449 174.84 134.331 175.387 134.094C175.952 133.857 176.38 133.538 176.672 133.137C176.964 132.717 177.109 132.234 177.109 131.688ZM199.34 98V140H190.125V98H199.34ZM198.246 124.195L196.086 124.25C196.086 122.172 196.341 120.258 196.852 118.508C197.362 116.758 198.091 115.236 199.039 113.941C199.987 112.647 201.126 111.645 202.457 110.934C203.788 110.223 205.264 109.867 206.887 109.867C208.345 109.867 209.676 110.077 210.879 110.496C212.1 110.915 213.148 111.59 214.023 112.52C214.917 113.449 215.6 114.661 216.074 116.156C216.566 117.651 216.812 119.474 216.812 121.625V140H207.543V121.57C207.543 120.367 207.37 119.438 207.023 118.781C206.695 118.107 206.221 117.642 205.602 117.387C204.982 117.113 204.225 116.977 203.332 116.977C202.257 116.977 201.382 117.159 200.707 117.523C200.033 117.888 199.513 118.398 199.148 119.055C198.802 119.693 198.565 120.449 198.438 121.324C198.31 122.199 198.246 123.156 198.246 124.195ZM222.008 98H231.223V132.727L230.266 140H222.008V98ZM249.379 124.879V125.453C249.379 127.695 249.151 129.737 248.695 131.578C248.24 133.419 247.538 135.014 246.59 136.363C245.642 137.694 244.448 138.724 243.008 139.453C241.568 140.182 239.863 140.547 237.895 140.547C236.108 140.547 234.577 140.164 233.301 139.398C232.025 138.615 230.958 137.539 230.102 136.172C229.245 134.786 228.552 133.191 228.023 131.387C227.495 129.564 227.076 127.613 226.766 125.535V124.852C227.076 122.792 227.495 120.859 228.023 119.055C228.552 117.232 229.245 115.637 230.102 114.27C230.958 112.884 232.016 111.809 233.273 111.043C234.549 110.259 236.072 109.867 237.84 109.867C239.827 109.867 241.54 110.241 242.98 110.988C244.439 111.736 245.642 112.784 246.59 114.133C247.538 115.482 248.24 117.068 248.695 118.891C249.151 120.714 249.379 122.71 249.379 124.879ZM240.164 125.453V124.879C240.164 123.803 240.1 122.792 239.973 121.844C239.845 120.896 239.617 120.057 239.289 119.328C238.961 118.599 238.496 118.025 237.895 117.605C237.293 117.186 236.509 116.977 235.543 116.977C234.559 116.977 233.729 117.141 233.055 117.469C232.398 117.797 231.87 118.271 231.469 118.891C231.086 119.492 230.812 120.24 230.648 121.133C230.484 122.008 230.411 123.001 230.43 124.113V126.273C230.393 127.786 230.53 129.081 230.84 130.156C231.15 131.232 231.688 132.052 232.453 132.617C233.219 133.182 234.267 133.465 235.598 133.465C236.582 133.465 237.375 133.273 237.977 132.891C238.596 132.508 239.061 131.961 239.371 131.25C239.681 130.539 239.891 129.691 240 128.707C240.109 127.723 240.164 126.638 240.164 125.453ZM252.332 125.508V124.934C252.332 122.764 252.642 120.768 253.262 118.945C253.882 117.104 254.793 115.509 255.996 114.16C257.199 112.811 258.685 111.763 260.453 111.016C262.221 110.25 264.263 109.867 266.578 109.867C268.911 109.867 270.962 110.25 272.73 111.016C274.517 111.763 276.012 112.811 277.215 114.16C278.418 115.509 279.329 117.104 279.949 118.945C280.569 120.768 280.879 122.764 280.879 124.934V125.508C280.879 127.659 280.569 129.655 279.949 131.496C279.329 133.319 278.418 134.914 277.215 136.281C276.012 137.63 274.526 138.678 272.758 139.426C270.99 140.173 268.948 140.547 266.633 140.547C264.318 140.547 262.267 140.173 260.48 139.426C258.694 138.678 257.199 137.63 255.996 136.281C254.793 134.914 253.882 133.319 253.262 131.496C252.642 129.655 252.332 127.659 252.332 125.508ZM261.547 124.934V125.508C261.547 126.62 261.629 127.659 261.793 128.625C261.957 129.591 262.23 130.439 262.613 131.168C262.996 131.879 263.516 132.435 264.172 132.836C264.828 133.237 265.648 133.438 266.633 133.438C267.599 133.438 268.401 133.237 269.039 132.836C269.695 132.435 270.215 131.879 270.598 131.168C270.98 130.439 271.254 129.591 271.418 128.625C271.582 127.659 271.664 126.62 271.664 125.508V124.934C271.664 123.858 271.582 122.846 271.418 121.898C271.254 120.932 270.98 120.085 270.598 119.355C270.215 118.608 269.695 118.025 269.039 117.605C268.383 117.186 267.562 116.977 266.578 116.977C265.612 116.977 264.801 117.186 264.145 117.605C263.507 118.025 262.996 118.608 262.613 119.355C262.23 120.085 261.957 120.932 261.793 121.898C261.629 122.846 261.547 123.858 261.547 124.934ZM300.348 132.562V120.367C300.348 119.529 300.229 118.809 299.992 118.207C299.755 117.605 299.382 117.141 298.871 116.812C298.361 116.466 297.677 116.293 296.82 116.293C296.128 116.293 295.535 116.411 295.043 116.648C294.551 116.885 294.177 117.241 293.922 117.715C293.667 118.189 293.539 118.79 293.539 119.52H284.324C284.324 118.152 284.625 116.885 285.227 115.719C285.846 114.534 286.721 113.504 287.852 112.629C289 111.754 290.367 111.079 291.953 110.605C293.557 110.113 295.344 109.867 297.312 109.867C299.664 109.867 301.76 110.259 303.602 111.043C305.461 111.827 306.928 113.003 308.004 114.57C309.079 116.12 309.617 118.07 309.617 120.422V132.535C309.617 134.467 309.727 135.935 309.945 136.938C310.164 137.922 310.474 138.788 310.875 139.535V140H301.633C301.195 139.089 300.867 137.977 300.648 136.664C300.448 135.333 300.348 133.966 300.348 132.562ZM301.469 121.926L301.523 126.848H297.449C296.592 126.848 295.863 126.966 295.262 127.203C294.678 127.44 294.204 127.768 293.84 128.188C293.493 128.589 293.238 129.044 293.074 129.555C292.928 130.065 292.855 130.603 292.855 131.168C292.855 131.715 292.983 132.207 293.238 132.645C293.512 133.064 293.876 133.392 294.332 133.629C294.788 133.866 295.298 133.984 295.863 133.984C296.884 133.984 297.75 133.793 298.461 133.41C299.19 133.009 299.746 132.526 300.129 131.961C300.512 131.396 300.703 130.867 300.703 130.375L302.727 134.148C302.362 134.878 301.943 135.616 301.469 136.363C301.013 137.111 300.439 137.803 299.746 138.441C299.072 139.061 298.242 139.572 297.258 139.973C296.273 140.355 295.079 140.547 293.676 140.547C291.853 140.547 290.176 140.173 288.645 139.426C287.132 138.678 285.919 137.639 285.008 136.309C284.096 134.96 283.641 133.41 283.641 131.66C283.641 130.129 283.914 128.762 284.461 127.559C285.026 126.355 285.874 125.335 287.004 124.496C288.134 123.658 289.574 123.02 291.324 122.582C293.074 122.145 295.134 121.926 297.504 121.926H301.469ZM324.027 117.742V140H314.812V110.414H323.426L324.027 117.742ZM332.777 110.195L332.613 118.754C332.249 118.717 331.757 118.672 331.137 118.617C330.517 118.562 329.997 118.535 329.578 118.535C328.503 118.535 327.573 118.663 326.789 118.918C326.023 119.155 325.385 119.52 324.875 120.012C324.383 120.486 324.018 121.087 323.781 121.816C323.562 122.546 323.462 123.393 323.48 124.359L321.812 123.266C321.812 121.279 322.004 119.474 322.387 117.852C322.788 116.211 323.353 114.798 324.082 113.613C324.811 112.41 325.695 111.49 326.734 110.852C327.773 110.195 328.94 109.867 330.234 109.867C330.69 109.867 331.137 109.895 331.574 109.949C332.03 110.004 332.431 110.086 332.777 110.195ZM352.41 133.219V98H361.68V140H353.367L352.41 133.219ZM334.254 125.562V124.988C334.254 122.746 334.5 120.704 334.992 118.863C335.484 117.004 336.214 115.409 337.18 114.078C338.146 112.729 339.349 111.69 340.789 110.961C342.229 110.232 343.888 109.867 345.766 109.867C347.443 109.867 348.91 110.259 350.168 111.043C351.426 111.809 352.501 112.884 353.395 114.27C354.288 115.655 355.017 117.277 355.582 119.137C356.147 120.978 356.576 122.965 356.867 125.098V125.781C356.576 127.786 356.147 129.682 355.582 131.469C355.017 133.237 354.288 134.805 353.395 136.172C352.501 137.539 351.417 138.615 350.141 139.398C348.883 140.164 347.406 140.547 345.711 140.547C343.833 140.547 342.174 140.173 340.734 139.426C339.312 138.678 338.118 137.63 337.152 136.281C336.204 134.932 335.484 133.346 334.992 131.523C334.5 129.701 334.254 127.714 334.254 125.562ZM343.469 124.988V125.562C343.469 126.674 343.542 127.704 343.688 128.652C343.833 129.6 344.079 130.439 344.426 131.168C344.79 131.879 345.264 132.435 345.848 132.836C346.449 133.237 347.188 133.438 348.062 133.438C349.247 133.438 350.223 133.155 350.988 132.59C351.772 132.025 352.346 131.223 352.711 130.184C353.094 129.145 353.258 127.923 353.203 126.52V124.359C353.24 123.156 353.158 122.099 352.957 121.188C352.757 120.258 352.438 119.483 352 118.863C351.581 118.243 351.043 117.779 350.387 117.469C349.749 117.141 348.992 116.977 348.117 116.977C347.26 116.977 346.531 117.177 345.93 117.578C345.346 117.979 344.872 118.544 344.508 119.273C344.143 119.984 343.879 120.832 343.715 121.816C343.551 122.783 343.469 123.84 343.469 124.988ZM367.504 135.68C367.504 134.367 367.978 133.273 368.926 132.398C369.874 131.505 371.095 131.059 372.59 131.059C374.103 131.059 375.324 131.505 376.254 132.398C377.202 133.273 377.676 134.367 377.676 135.68C377.676 136.992 377.202 138.095 376.254 138.988C375.324 139.863 374.103 140.301 372.59 140.301C371.095 140.301 369.874 139.863 368.926 138.988C367.978 138.095 367.504 136.992 367.504 135.68ZM393.59 110.414V140H384.348V110.414H393.59ZM383.801 102.785C383.801 101.473 384.275 100.397 385.223 99.5586C386.171 98.7201 387.401 98.3008 388.914 98.3008C390.427 98.3008 391.658 98.7201 392.605 99.5586C393.553 100.397 394.027 101.473 394.027 102.785C394.027 104.098 393.553 105.173 392.605 106.012C391.658 106.85 390.427 107.27 388.914 107.27C387.401 107.27 386.171 106.85 385.223 106.012C384.275 105.173 383.801 104.098 383.801 102.785ZM398.129 125.508V124.934C398.129 122.764 398.439 120.768 399.059 118.945C399.678 117.104 400.59 115.509 401.793 114.16C402.996 112.811 404.482 111.763 406.25 111.016C408.018 110.25 410.06 109.867 412.375 109.867C414.708 109.867 416.759 110.25 418.527 111.016C420.314 111.763 421.809 112.811 423.012 114.16C424.215 115.509 425.126 117.104 425.746 118.945C426.366 120.768 426.676 122.764 426.676 124.934V125.508C426.676 127.659 426.366 129.655 425.746 131.496C425.126 133.319 424.215 134.914 423.012 136.281C421.809 137.63 420.323 138.678 418.555 139.426C416.786 140.173 414.745 140.547 412.43 140.547C410.115 140.547 408.064 140.173 406.277 139.426C404.491 138.678 402.996 137.63 401.793 136.281C400.59 134.914 399.678 133.319 399.059 131.496C398.439 129.655 398.129 127.659 398.129 125.508ZM407.344 124.934V125.508C407.344 126.62 407.426 127.659 407.59 128.625C407.754 129.591 408.027 130.439 408.41 131.168C408.793 131.879 409.312 132.435 409.969 132.836C410.625 133.237 411.445 133.438 412.43 133.438C413.396 133.438 414.198 133.237 414.836 132.836C415.492 132.435 416.012 131.879 416.395 131.168C416.777 130.439 417.051 129.591 417.215 128.625C417.379 127.659 417.461 126.62 417.461 125.508V124.934C417.461 123.858 417.379 122.846 417.215 121.898C417.051 120.932 416.777 120.085 416.395 119.355C416.012 118.608 415.492 118.025 414.836 117.605C414.18 117.186 413.359 116.977 412.375 116.977C411.409 116.977 410.598 117.186 409.941 117.605C409.303 118.025 408.793 118.608 408.41 119.355C408.027 120.085 407.754 120.932 407.59 121.898C407.426 122.846 407.344 123.858 407.344 124.934Z" fill="black"/>
<rect x="93" y="178" width="917" height="77" rx="10" fill="#D3D3D3"/>
<rect x="111" y="196" width="91" height="41" rx="3" fill="#424242"/>
<path d="M134.141 210.203H139.177C140.161 210.203 141.017 210.35 141.743 210.643C142.47 210.936 143.029 211.369 143.422 211.943C143.82 212.518 144.02 213.227 144.02 214.07C144.02 214.803 143.905 215.415 143.677 215.907C143.448 216.399 143.129 216.807 142.719 217.129C142.314 217.445 141.843 217.706 141.304 217.911L140.293 218.482H136.065L136.048 216.101H139.177C139.569 216.101 139.895 216.03 140.152 215.89C140.41 215.749 140.604 215.55 140.732 215.292C140.867 215.028 140.935 214.715 140.935 214.352C140.935 213.982 140.867 213.666 140.732 213.402C140.598 213.139 140.398 212.937 140.135 212.796C139.877 212.655 139.558 212.585 139.177 212.585H137.226V223H134.141V210.203ZM141.146 223L138.315 217.34L141.585 217.322L144.45 222.868V223H141.146ZM150.348 223.176C149.574 223.176 148.883 223.056 148.273 222.815C147.664 222.569 147.148 222.232 146.727 221.805C146.311 221.377 145.991 220.885 145.769 220.328C145.552 219.771 145.443 219.183 145.443 218.562V218.228C145.443 217.53 145.54 216.886 145.733 216.294C145.927 215.696 146.214 215.175 146.595 214.729C146.976 214.284 147.453 213.938 148.027 213.692C148.602 213.44 149.27 213.314 150.031 213.314C150.705 213.314 151.309 213.423 151.842 213.64C152.375 213.856 152.826 214.167 153.195 214.571C153.57 214.976 153.854 215.465 154.048 216.039C154.247 216.613 154.347 217.258 154.347 217.973V219.177H146.577V217.322H151.455V217.094C151.461 216.777 151.405 216.508 151.288 216.285C151.177 216.062 151.013 215.893 150.796 215.775C150.579 215.658 150.315 215.6 150.005 215.6C149.683 215.6 149.416 215.67 149.205 215.811C149 215.951 148.839 216.145 148.722 216.391C148.61 216.631 148.531 216.909 148.484 217.226C148.438 217.542 148.414 217.876 148.414 218.228V218.562C148.414 218.913 148.461 219.232 148.555 219.52C148.654 219.807 148.795 220.053 148.977 220.258C149.164 220.457 149.387 220.612 149.645 220.724C149.908 220.835 150.207 220.891 150.541 220.891C150.945 220.891 151.344 220.814 151.736 220.662C152.129 220.51 152.466 220.258 152.747 219.906L154.092 221.506C153.898 221.781 153.623 222.048 153.266 222.306C152.914 222.563 152.492 222.774 152 222.938C151.508 223.097 150.957 223.176 150.348 223.176ZM160.49 220.609V216.689C160.49 216.42 160.452 216.188 160.376 215.995C160.3 215.802 160.18 215.652 160.016 215.547C159.852 215.436 159.632 215.38 159.356 215.38C159.134 215.38 158.943 215.418 158.785 215.494C158.627 215.57 158.507 215.685 158.425 215.837C158.343 215.989 158.302 216.183 158.302 216.417H155.34C155.34 215.978 155.437 215.57 155.63 215.195C155.829 214.814 156.11 214.483 156.474 214.202C156.843 213.921 157.282 213.704 157.792 213.552C158.308 213.394 158.882 213.314 159.515 213.314C160.271 213.314 160.944 213.44 161.536 213.692C162.134 213.944 162.605 214.322 162.951 214.826C163.297 215.324 163.47 215.951 163.47 216.707V220.601C163.47 221.222 163.505 221.693 163.575 222.016C163.646 222.332 163.745 222.61 163.874 222.851V223H160.903C160.763 222.707 160.657 222.35 160.587 221.928C160.522 221.5 160.49 221.061 160.49 220.609ZM160.851 217.19L160.868 218.772H159.559C159.283 218.772 159.049 218.811 158.855 218.887C158.668 218.963 158.516 219.068 158.398 219.203C158.287 219.332 158.205 219.479 158.152 219.643C158.105 219.807 158.082 219.979 158.082 220.161C158.082 220.337 158.123 220.495 158.205 220.636C158.293 220.771 158.41 220.876 158.557 220.952C158.703 221.028 158.867 221.066 159.049 221.066C159.377 221.066 159.655 221.005 159.884 220.882C160.118 220.753 160.297 220.598 160.42 220.416C160.543 220.234 160.604 220.064 160.604 219.906L161.255 221.119C161.138 221.354 161.003 221.591 160.851 221.831C160.704 222.071 160.52 222.294 160.297 222.499C160.08 222.698 159.813 222.862 159.497 222.991C159.181 223.114 158.797 223.176 158.346 223.176C157.76 223.176 157.221 223.056 156.729 222.815C156.242 222.575 155.853 222.241 155.56 221.813C155.267 221.38 155.12 220.882 155.12 220.319C155.12 219.827 155.208 219.388 155.384 219.001C155.565 218.614 155.838 218.286 156.201 218.017C156.564 217.747 157.027 217.542 157.59 217.401C158.152 217.261 158.814 217.19 159.576 217.19H160.851ZM169.13 220.891C169.405 220.891 169.64 220.841 169.833 220.741C170.032 220.636 170.182 220.489 170.281 220.302C170.387 220.108 170.437 219.877 170.431 219.607H173.217C173.223 220.322 173.047 220.949 172.689 221.488C172.338 222.021 171.857 222.438 171.248 222.736C170.645 223.029 169.962 223.176 169.2 223.176C168.456 223.176 167.806 223.056 167.249 222.815C166.692 222.569 166.227 222.229 165.852 221.796C165.482 221.356 165.204 220.844 165.017 220.258C164.835 219.672 164.744 219.036 164.744 218.351V218.148C164.744 217.463 164.835 216.827 165.017 216.241C165.204 215.649 165.482 215.137 165.852 214.703C166.227 214.264 166.689 213.924 167.24 213.684C167.797 213.438 168.444 213.314 169.183 213.314C169.974 213.314 170.671 213.464 171.274 213.763C171.884 214.062 172.361 214.495 172.707 215.063C173.053 215.632 173.223 216.32 173.217 217.129H170.431C170.437 216.842 170.393 216.584 170.299 216.355C170.205 216.127 170.059 215.945 169.859 215.811C169.666 215.67 169.417 215.6 169.112 215.6C168.808 215.6 168.562 215.667 168.374 215.802C168.187 215.937 168.043 216.124 167.943 216.364C167.85 216.599 167.785 216.868 167.75 217.173C167.721 217.478 167.706 217.803 167.706 218.148V218.351C167.706 218.702 167.721 219.033 167.75 219.344C167.785 219.648 167.853 219.918 167.952 220.152C168.052 220.381 168.195 220.562 168.383 220.697C168.57 220.826 168.819 220.891 169.13 220.891ZM179.492 213.49V215.547H173.762V213.49H179.492ZM174.966 211.126H177.928V219.897C177.928 220.149 177.957 220.346 178.016 220.486C178.074 220.621 178.174 220.718 178.314 220.776C178.461 220.829 178.654 220.855 178.895 220.855C179.064 220.855 179.205 220.853 179.316 220.847C179.428 220.835 179.533 220.82 179.633 220.803V222.921C179.381 223.003 179.117 223.064 178.842 223.105C178.566 223.152 178.273 223.176 177.963 223.176C177.33 223.176 176.788 223.076 176.337 222.877C175.892 222.678 175.552 222.364 175.317 221.937C175.083 221.509 174.966 220.952 174.966 220.267V211.126Z" fill="white"/>
<rect x="111" y="196" width="91" height="41" rx="3" stroke="#424242" stroke-width="4"/>
<rect x="222" y="196" width="104" height="41" rx="3" fill="#424242"/>
<path d="M253.812 220.627V223H247.343V220.627H253.812ZM248.441 210.203V223H245.356V210.203H248.441ZM259.911 220.609V216.689C259.911 216.42 259.873 216.188 259.797 215.995C259.721 215.802 259.601 215.652 259.437 215.547C259.272 215.436 259.053 215.38 258.777 215.38C258.555 215.38 258.364 215.418 258.206 215.494C258.048 215.57 257.928 215.685 257.846 215.837C257.764 215.989 257.723 216.183 257.723 216.417H254.761C254.761 215.978 254.857 215.57 255.051 215.195C255.25 214.814 255.531 214.483 255.895 214.202C256.264 213.921 256.703 213.704 257.213 213.552C257.729 213.394 258.303 213.314 258.936 213.314C259.691 213.314 260.365 213.44 260.957 213.692C261.555 213.944 262.026 214.322 262.372 214.826C262.718 215.324 262.891 215.951 262.891 216.707V220.601C262.891 221.222 262.926 221.693 262.996 222.016C263.066 222.332 263.166 222.61 263.295 222.851V223H260.324C260.184 222.707 260.078 222.35 260.008 221.928C259.943 221.5 259.911 221.061 259.911 220.609ZM260.271 217.19L260.289 218.772H258.979C258.704 218.772 258.47 218.811 258.276 218.887C258.089 218.963 257.937 219.068 257.819 219.203C257.708 219.332 257.626 219.479 257.573 219.643C257.526 219.807 257.503 219.979 257.503 220.161C257.503 220.337 257.544 220.495 257.626 220.636C257.714 220.771 257.831 220.876 257.978 220.952C258.124 221.028 258.288 221.066 258.47 221.066C258.798 221.066 259.076 221.005 259.305 220.882C259.539 220.753 259.718 220.598 259.841 220.416C259.964 220.234 260.025 220.064 260.025 219.906L260.676 221.119C260.559 221.354 260.424 221.591 260.271 221.831C260.125 222.071 259.94 222.294 259.718 222.499C259.501 222.698 259.234 222.862 258.918 222.991C258.602 223.114 258.218 223.176 257.767 223.176C257.181 223.176 256.642 223.056 256.149 222.815C255.663 222.575 255.273 222.241 254.98 221.813C254.688 221.38 254.541 220.882 254.541 220.319C254.541 219.827 254.629 219.388 254.805 219.001C254.986 218.614 255.259 218.286 255.622 218.017C255.985 217.747 256.448 217.542 257.011 217.401C257.573 217.261 258.235 217.19 258.997 217.19H260.271ZM267.522 215.846V223H264.561V213.49H267.329L267.522 215.846ZM270.335 213.42L270.282 216.171C270.165 216.159 270.007 216.145 269.808 216.127C269.608 216.109 269.441 216.101 269.307 216.101C268.961 216.101 268.662 216.142 268.41 216.224C268.164 216.3 267.959 216.417 267.795 216.575C267.637 216.728 267.52 216.921 267.443 217.155C267.373 217.39 267.341 217.662 267.347 217.973L266.811 217.621C266.811 216.982 266.872 216.402 266.995 215.881C267.124 215.354 267.306 214.899 267.54 214.519C267.774 214.132 268.059 213.836 268.393 213.631C268.727 213.42 269.102 213.314 269.518 213.314C269.664 213.314 269.808 213.323 269.948 213.341C270.095 213.358 270.224 213.385 270.335 213.42ZM276.03 220.609V216.689C276.03 216.42 275.992 216.188 275.916 215.995C275.84 215.802 275.72 215.652 275.556 215.547C275.392 215.436 275.172 215.38 274.896 215.38C274.674 215.38 274.483 215.418 274.325 215.494C274.167 215.57 274.047 215.685 273.965 215.837C273.883 215.989 273.842 216.183 273.842 216.417H270.88C270.88 215.978 270.977 215.57 271.17 215.195C271.369 214.814 271.65 214.483 272.014 214.202C272.383 213.921 272.822 213.704 273.332 213.552C273.848 213.394 274.422 213.314 275.055 213.314C275.811 213.314 276.484 213.44 277.076 213.692C277.674 213.944 278.146 214.322 278.491 214.826C278.837 215.324 279.01 215.951 279.01 216.707V220.601C279.01 221.222 279.045 221.693 279.115 222.016C279.186 222.332 279.285 222.61 279.414 222.851V223H276.443C276.303 222.707 276.197 222.35 276.127 221.928C276.062 221.5 276.03 221.061 276.03 220.609ZM276.391 217.19L276.408 218.772H275.099C274.823 218.772 274.589 218.811 274.396 218.887C274.208 218.963 274.056 219.068 273.938 219.203C273.827 219.332 273.745 219.479 273.692 219.643C273.646 219.807 273.622 219.979 273.622 220.161C273.622 220.337 273.663 220.495 273.745 220.636C273.833 220.771 273.95 220.876 274.097 220.952C274.243 221.028 274.407 221.066 274.589 221.066C274.917 221.066 275.195 221.005 275.424 220.882C275.658 220.753 275.837 220.598 275.96 220.416C276.083 220.234 276.145 220.064 276.145 219.906L276.795 221.119C276.678 221.354 276.543 221.591 276.391 221.831C276.244 222.071 276.06 222.294 275.837 222.499C275.62 222.698 275.354 222.862 275.037 222.991C274.721 223.114 274.337 223.176 273.886 223.176C273.3 223.176 272.761 223.056 272.269 222.815C271.782 222.575 271.393 222.241 271.1 221.813C270.807 221.38 270.66 220.882 270.66 220.319C270.66 219.827 270.748 219.388 270.924 219.001C271.105 218.614 271.378 218.286 271.741 218.017C272.104 217.747 272.567 217.542 273.13 217.401C273.692 217.261 274.354 217.19 275.116 217.19H276.391ZM283.94 220.97L285.812 213.49H288.933L285.821 223H283.976L283.94 220.97ZM282.833 213.49L284.679 220.97L284.661 223H282.807L279.704 213.49H282.833ZM294.294 223.176C293.521 223.176 292.829 223.056 292.22 222.815C291.61 222.569 291.095 222.232 290.673 221.805C290.257 221.377 289.938 220.885 289.715 220.328C289.498 219.771 289.39 219.183 289.39 218.562V218.228C289.39 217.53 289.486 216.886 289.68 216.294C289.873 215.696 290.16 215.175 290.541 214.729C290.922 214.284 291.399 213.938 291.974 213.692C292.548 213.44 293.216 213.314 293.978 213.314C294.651 213.314 295.255 213.423 295.788 213.64C296.321 213.856 296.772 214.167 297.142 214.571C297.517 214.976 297.801 215.465 297.994 216.039C298.193 216.613 298.293 217.258 298.293 217.973V219.177H290.523V217.322H295.401V217.094C295.407 216.777 295.352 216.508 295.234 216.285C295.123 216.062 294.959 215.893 294.742 215.775C294.525 215.658 294.262 215.6 293.951 215.6C293.629 215.6 293.362 215.67 293.151 215.811C292.946 215.951 292.785 216.145 292.668 216.391C292.557 216.631 292.478 216.909 292.431 217.226C292.384 217.542 292.36 217.876 292.36 218.228V218.562C292.36 218.913 292.407 219.232 292.501 219.52C292.601 219.807 292.741 220.053 292.923 220.258C293.11 220.457 293.333 220.612 293.591 220.724C293.854 220.835 294.153 220.891 294.487 220.891C294.892 220.891 295.29 220.814 295.683 220.662C296.075 220.51 296.412 220.258 296.693 219.906L298.038 221.506C297.845 221.781 297.569 222.048 297.212 222.306C296.86 222.563 296.438 222.774 295.946 222.938C295.454 223.097 294.903 223.176 294.294 223.176ZM302.626 209.5V223H299.655V209.5H302.626Z" fill="white"/>
<rect x="222" y="196" width="104" height="41" rx="3" stroke="#424242" stroke-width="4"/>
<rect x="346" y="196" width="91" height="41" rx="3" fill="#424242"/>
<path d="M374.66 217.56H371.364L371.347 215.538H374.019C374.499 215.538 374.883 215.485 375.17 215.38C375.457 215.269 375.665 215.107 375.794 214.896C375.929 214.686 375.996 214.422 375.996 214.105C375.996 213.742 375.929 213.449 375.794 213.227C375.659 213.004 375.445 212.843 375.152 212.743C374.865 212.638 374.493 212.585 374.036 212.585H372.524V223H369.439V210.203H374.036C374.827 210.203 375.533 210.276 376.154 210.423C376.775 210.563 377.303 210.78 377.736 211.073C378.176 211.366 378.51 211.735 378.738 212.181C378.967 212.62 379.081 213.139 379.081 213.736C379.081 214.258 378.97 214.747 378.747 215.204C378.524 215.661 378.152 216.033 377.631 216.32C377.115 216.602 376.409 216.748 375.513 216.76L374.66 217.56ZM374.537 223H370.617L371.672 220.627H374.537C374.959 220.627 375.296 220.562 375.548 220.434C375.806 220.299 375.99 220.123 376.102 219.906C376.219 219.684 376.277 219.438 376.277 219.168C376.277 218.84 376.222 218.556 376.11 218.315C376.005 218.075 375.835 217.891 375.601 217.762C375.366 217.627 375.053 217.56 374.66 217.56H372.067L372.085 215.538H375.188L375.908 216.347C376.764 216.312 377.44 216.432 377.938 216.707C378.442 216.982 378.803 217.346 379.02 217.797C379.236 218.248 379.345 218.72 379.345 219.212C379.345 220.05 379.163 220.75 378.8 221.312C378.442 221.875 377.906 222.297 377.191 222.578C376.477 222.859 375.592 223 374.537 223ZM384.047 209.5V223H381.076V209.5H384.047ZM390.814 220.609V216.689C390.814 216.42 390.776 216.188 390.7 215.995C390.624 215.802 390.504 215.652 390.34 215.547C390.176 215.436 389.956 215.38 389.681 215.38C389.458 215.38 389.268 215.418 389.109 215.494C388.951 215.57 388.831 215.685 388.749 215.837C388.667 215.989 388.626 216.183 388.626 216.417H385.664C385.664 215.978 385.761 215.57 385.954 215.195C386.153 214.814 386.435 214.483 386.798 214.202C387.167 213.921 387.606 213.704 388.116 213.552C388.632 213.394 389.206 213.314 389.839 213.314C390.595 213.314 391.269 213.44 391.86 213.692C392.458 213.944 392.93 214.322 393.275 214.826C393.621 215.324 393.794 215.951 393.794 216.707V220.601C393.794 221.222 393.829 221.693 393.899 222.016C393.97 222.332 394.069 222.61 394.198 222.851V223H391.228C391.087 222.707 390.981 222.35 390.911 221.928C390.847 221.5 390.814 221.061 390.814 220.609ZM391.175 217.19L391.192 218.772H389.883C389.607 218.772 389.373 218.811 389.18 218.887C388.992 218.963 388.84 219.068 388.723 219.203C388.611 219.332 388.529 219.479 388.477 219.643C388.43 219.807 388.406 219.979 388.406 220.161C388.406 220.337 388.447 220.495 388.529 220.636C388.617 220.771 388.734 220.876 388.881 220.952C389.027 221.028 389.191 221.066 389.373 221.066C389.701 221.066 389.979 221.005 390.208 220.882C390.442 220.753 390.621 220.598 390.744 220.416C390.867 220.234 390.929 220.064 390.929 219.906L391.579 221.119C391.462 221.354 391.327 221.591 391.175 221.831C391.028 222.071 390.844 222.294 390.621 222.499C390.404 222.698 390.138 222.862 389.821 222.991C389.505 223.114 389.121 223.176 388.67 223.176C388.084 223.176 387.545 223.056 387.053 222.815C386.566 222.575 386.177 222.241 385.884 221.813C385.591 221.38 385.444 220.882 385.444 220.319C385.444 219.827 385.532 219.388 385.708 219.001C385.89 218.614 386.162 218.286 386.525 218.017C386.889 217.747 387.352 217.542 387.914 217.401C388.477 217.261 389.139 217.19 389.9 217.19H391.175ZM400.904 220.82V209.5H403.884V223H401.212L400.904 220.82ZM395.068 218.359V218.175C395.068 217.454 395.147 216.798 395.306 216.206C395.464 215.608 395.698 215.096 396.009 214.668C396.319 214.234 396.706 213.9 397.169 213.666C397.632 213.432 398.165 213.314 398.769 213.314C399.308 213.314 399.779 213.44 400.184 213.692C400.588 213.938 400.934 214.284 401.221 214.729C401.508 215.175 401.742 215.696 401.924 216.294C402.105 216.886 402.243 217.524 402.337 218.21V218.43C402.243 219.074 402.105 219.684 401.924 220.258C401.742 220.826 401.508 221.33 401.221 221.77C400.934 222.209 400.585 222.555 400.175 222.807C399.771 223.053 399.296 223.176 398.751 223.176C398.147 223.176 397.614 223.056 397.151 222.815C396.694 222.575 396.311 222.238 396 221.805C395.695 221.371 395.464 220.861 395.306 220.275C395.147 219.689 395.068 219.051 395.068 218.359ZM398.03 218.175V218.359C398.03 218.717 398.054 219.048 398.101 219.353C398.147 219.657 398.227 219.927 398.338 220.161C398.455 220.39 398.607 220.568 398.795 220.697C398.988 220.826 399.226 220.891 399.507 220.891C399.888 220.891 400.201 220.8 400.447 220.618C400.699 220.437 400.884 220.179 401.001 219.845C401.124 219.511 401.177 219.118 401.159 218.667V217.973C401.171 217.586 401.145 217.246 401.08 216.953C401.016 216.654 400.913 216.405 400.772 216.206C400.638 216.007 400.465 215.857 400.254 215.758C400.049 215.652 399.806 215.6 399.524 215.6C399.249 215.6 399.015 215.664 398.821 215.793C398.634 215.922 398.481 216.104 398.364 216.338C398.247 216.566 398.162 216.839 398.109 217.155C398.057 217.466 398.03 217.806 398.03 218.175ZM410.168 223.176C409.395 223.176 408.703 223.056 408.094 222.815C407.484 222.569 406.969 222.232 406.547 221.805C406.131 221.377 405.812 220.885 405.589 220.328C405.372 219.771 405.264 219.183 405.264 218.562V218.228C405.264 217.53 405.36 216.886 405.554 216.294C405.747 215.696 406.034 215.175 406.415 214.729C406.796 214.284 407.273 213.938 407.848 213.692C408.422 213.44 409.09 213.314 409.852 213.314C410.525 213.314 411.129 213.423 411.662 213.64C412.195 213.856 412.646 214.167 413.016 214.571C413.391 214.976 413.675 215.465 413.868 216.039C414.067 216.613 414.167 217.258 414.167 217.973V219.177H406.397V217.322H411.275V217.094C411.281 216.777 411.226 216.508 411.108 216.285C410.997 216.062 410.833 215.893 410.616 215.775C410.399 215.658 410.136 215.6 409.825 215.6C409.503 215.6 409.236 215.67 409.025 215.811C408.82 215.951 408.659 216.145 408.542 216.391C408.431 216.631 408.352 216.909 408.305 217.226C408.258 217.542 408.234 217.876 408.234 218.228V218.562C408.234 218.913 408.281 219.232 408.375 219.52C408.475 219.807 408.615 220.053 408.797 220.258C408.984 220.457 409.207 220.612 409.465 220.724C409.729 220.835 410.027 220.891 410.361 220.891C410.766 220.891 411.164 220.814 411.557 220.662C411.949 220.51 412.286 220.258 412.567 219.906L413.912 221.506C413.719 221.781 413.443 222.048 413.086 222.306C412.734 222.563 412.312 222.774 411.82 222.938C411.328 223.097 410.777 223.176 410.168 223.176Z" fill="white"/>
<rect x="346" y="196" width="91" height="41" rx="3" stroke="#424242" stroke-width="4"/>
<path d="M1066 0H1348C1356.28 0 1363 6.71573 1363 15V282C1363 290.284 1356.28 297 1348 297H1066V0Z" fill="white"/>
<path d="M1146.01 208.966V145.291C1147.11 139.379 1150.72 136.368 1156.86 136.355C1170.6 136.323 1184.34 136.323 1198.07 136.355C1204.87 136.373 1209.52 141.017 1209.54 147.817C1209.57 167.303 1209.57 186.789 1209.54 206.274C1209.54 209.675 1208.43 212.592 1205.85 214.979C1204.24 216.475 1202.3 216.7 1200.34 216.995H1154.04C1152.39 216.577 1150.68 216.484 1149.28 215.226C1147.63 213.743 1146.38 212.137 1146.2 209.855C1146.18 209.565 1146.24 209.226 1146.01 208.966Z" fill="#1976D1"/>
<path d="M1228.41 80.0067H1274.71C1276.51 80.368 1278.34 80.5045 1279.85 81.856C1281.63 83.4483 1282.74 85.2762 1282.88 87.6741C1282.89 87.9738 1282.78 88.2977 1283.01 88.568V151.711C1281.91 157.62 1278.3 160.633 1272.15 160.647C1258.42 160.679 1244.68 160.679 1230.95 160.647C1224.15 160.628 1219.5 155.987 1219.49 149.184C1219.46 129.698 1219.46 110.212 1219.49 90.7277C1219.49 87.3262 1220.6 84.4064 1223.19 82.0219C1224.71 80.5982 1226.54 80.3359 1228.41 80.0067Z" fill="#1976D1"/>
<path d="M1200.6 80.0067C1200.67 80.2021 1200.84 80.2235 1201.01 80.2743C1205.89 81.5964 1208.78 85.2468 1208.82 90.3022C1208.86 98.6395 1208.86 106.976 1208.82 115.311C1208.78 121.4 1204.53 125.666 1198.43 125.682C1184.43 125.719 1170.44 125.719 1156.44 125.682C1151.51 125.682 1148.02 123.094 1146.39 118.389C1146.31 118.151 1146.34 117.838 1146.02 117.731V88.0354C1146.43 86.3842 1146.56 84.6848 1147.78 83.2717C1149.35 81.4706 1151.16 80.3279 1153.55 80.1459C1153.82 80.1271 1154.09 80.2128 1154.31 80.0094L1200.6 80.0067Z" fill="#2195F2"/>
<path d="M1228.15 216.995C1228.01 216.623 1227.64 216.671 1227.36 216.577C1222.93 215.049 1220.25 211.607 1220.21 206.978C1220.14 198.414 1220.12 189.85 1220.21 181.299C1220.28 175.626 1224.5 171.384 1230.17 171.346C1244.43 171.253 1258.7 171.274 1272.96 171.346C1277.8 171.368 1281.44 174.349 1282.7 178.998C1282.76 179.204 1282.72 179.453 1282.99 179.533V208.971C1282.58 210.625 1282.46 212.322 1281.22 213.738C1279.66 215.539 1277.85 216.682 1275.45 216.864C1275.19 216.882 1274.92 216.794 1274.69 217L1228.15 216.995Z" fill="#2195F2"/>
</svg>
